<svg width="50px" height="50px" viewBox="0 0 50 50" fill="none" xmlns="http://www.w3.org/2000/svg">
    <g id="sun">
        <path id="Vector" d="M12 4V2M12 20V22M6.41421 6.41421L5 5M17.728 17.728L19.1422 19.1422M4 12H2M20 12H22M17.7285 6.41421L19.1427 5M6.4147 17.728L5.00049 19.1422M12 17C9.23858 17 7 14.7614 7 12C7 9.23858 9.23858 7 12 7C14.7614 7 17 9.23858 17 12C17 14.7614 14.7614 17 12 17Z" stroke="#000000" stroke-width="2" stroke-linecap="round" stroke-linejoin="round"/>
    </g>

    <g id="moon">
        <path id="Vector" d="M9 6C9 10.9706 13.0294 15 18 15C18.9093 15 19.787 14.8655 20.6144 14.6147C19.4943 18.3103 16.0613 20.9999 12 20.9999C7.02944 20.9999 3 16.9707 3 12.0001C3 7.93883 5.69007 4.50583 9.38561 3.38574C9.13484 4.21311 9 5.09074 9 6Z" stroke="#000000" stroke-width="2" stroke-linecap="round" stroke-linejoin="round"/>
    </g>

    <g id="heart">
        <path id="Vector" d="M19.2373 6.23731C20.7839 7.78395 20.8432 10.2727 19.3718 11.8911L11.9995 20.0001L4.62812 11.8911C3.15679 10.2727 3.21605 7.7839 4.76269 6.23726C6.48961 4.51034 9.33372 4.66814 10.8594 6.5752L12 8.00045L13.1396 6.57504C14.6653 4.66798 17.5104 4.51039 19.2373 6.23731Z" stroke="#000000" stroke-width="2" stroke-linecap="round" stroke-linejoin="round"/>
    </g>

</svg>
